TITLE ""
FILE "2Q_t_0535-0552.mp3" MP3
  TRACK 01 AUDIO
    TITLE "2Q_t_0535-0552_01"
    INDEX 01 00:00:00
  TRACK 02 AUDIO
    TITLE "2Q_t_0535-0552_02"
    INDEX 01 00:00:14
  TRACK 03 AUDIO
    TITLE "2Q_t_0535-0552_03"
    INDEX 01 00:01:29
  TRACK 04 AUDIO
    TITLE "2Q_t_0535-0552_04"
    INDEX 01 00:02:01
  TRACK 05 AUDIO
    TITLE "2Q_t_0535-0552_05"
    INDEX 01 00:03:07
  TRACK 06 AUDIO
    TITLE "2Q_t_0535-0552_06"
    INDEX 01 00:03:50
  TRACK 07 AUDIO
    TITLE "2Q_t_0535-0552_07"
    INDEX 01 00:04:63
  TRACK 08 AUDIO
    TITLE "2Q_t_0535-0552_08"
    INDEX 01 00:05:33
  TRACK 09 AUDIO
    TITLE "2Q_t_0535-0552_09"
    INDEX 01 00:07:48
  TRACK 10 AUDIO
    TITLE "2Q_t_0535-0552_10"
    INDEX 01 00:08:18
  TRACK 11 AUDIO
    TITLE "2Q_t_0535-0552_11"
    INDEX 01 00:09:31
  TRACK 12 AUDIO
    TITLE "2Q_t_0535-0552_12"
    INDEX 01 00:10:05
  TRACK 13 AUDIO
    TITLE "2Q_t_0535-0552_13"
    INDEX 01 00:13:03
  TRACK 14 AUDIO
    TITLE "2Q_t_0535-0552_14"
    INDEX 01 00:13:48
  TRACK 15 AUDIO
    TITLE "2Q_t_0535-0552_15"
    INDEX 01 00:15:02
  TRACK 16 AUDIO
    TITLE "2Q_t_0535-0552_16"
    INDEX 01 00:15:55
  TRACK 17 AUDIO
    TITLE "2Q_t_0535-0552_17"
    INDEX 01 00:17:19
  TRACK 18 AUDIO
    TITLE "2Q_t_0535-0552_18"
    INDEX 01 00:17:64
  TRACK 19 AUDIO
    TITLE "2Q_t_0535-0552_19"
    INDEX 01 00:18:71
  TRACK 20 AUDIO
    TITLE "2Q_t_0535-0552_20"
    INDEX 01 00:19:51
  TRACK 21 AUDIO
    TITLE "2Q_t_0535-0552_21"
    INDEX 01 00:22:20
  TRACK 22 AUDIO
    TITLE "2Q_t_0535-0552_22"
    INDEX 01 00:22:65
  TRACK 23 AUDIO
    TITLE "2Q_t_0535-0552_23"
    INDEX 01 00:23:74
  TRACK 24 AUDIO
    TITLE "2Q_t_0535-0552_24"
    INDEX 01 00:24:48
  TRACK 25 AUDIO
    TITLE "2Q_t_0535-0552_25"
    INDEX 01 00:26:72
  TRACK 26 AUDIO
    TITLE "2Q_t_0535-0552_26"
    INDEX 01 00:27:42
  TRACK 27 AUDIO
    TITLE "2Q_t_0535-0552_27"
    INDEX 01 00:28:40
  TRACK 28 AUDIO
    TITLE "2Q_t_0535-0552_28"
    INDEX 01 00:29:14
  TRACK 29 AUDIO
    TITLE "2Q_t_0535-0552_29"
    INDEX 01 00:32:08
  TRACK 30 AUDIO
    TITLE "2Q_t_0535-0552_30"
    INDEX 01 00:32:53
  TRACK 31 AUDIO
    TITLE "2Q_t_0535-0552_31"
    INDEX 01 00:33:51
  TRACK 32 AUDIO
    TITLE "2Q_t_0535-0552_32"
    INDEX 01 00:34:25
  TRACK 33 AUDIO
    TITLE "2Q_t_0535-0552_33"
    INDEX 01 00:36:30
  TRACK 34 AUDIO
    TITLE "2Q_t_0535-0552_34"
    INDEX 01 00:36:73
  TRACK 35 AUDIO
    TITLE "2Q_t_0535-0552_35"
    INDEX 01 00:38:25
  TRACK 36 AUDIO
    TITLE "2Q_t_0535-0552_36"
    INDEX 01 00:38:72
  TRACK 37 AUDIO
    TITLE "2Q_t_0535-0552_37"
    INDEX 01 00:40:02
  TRACK 38 AUDIO
    TITLE "2Q_t_0535-0552_38"
    INDEX 01 00:40:45
  TRACK 39 AUDIO
    TITLE "2Q_t_0535-0552_39"
    INDEX 01 00:41:37
  TRACK 40 AUDIO
    TITLE "2Q_t_0535-0552_40"
    INDEX 01 00:42:19
  TRACK 41 AUDIO
    TITLE "2Q_t_0535-0552_41"
    INDEX 01 00:46:40
  TRACK 42 AUDIO
    TITLE "2Q_t_0535-0552_42"
    INDEX 01 00:47:12
  TRACK 43 AUDIO
    TITLE "2Q_t_0535-0552_43"
    INDEX 01 00:48:21
  TRACK 44 AUDIO
    TITLE "2Q_t_0535-0552_44"
    INDEX 01 00:48:72
  TRACK 45 AUDIO
    TITLE "2Q_t_0535-0552_45"
    INDEX 01 00:52:27
  TRACK 46 AUDIO
    TITLE "2Q_t_0535-0552_46"
    INDEX 01 00:52:72
  TRACK 47 AUDIO
    TITLE "2Q_t_0535-0552_47"
    INDEX 01 00:54:02
  TRACK 48 AUDIO
    TITLE "2Q_t_0535-0552_48"
    INDEX 01 00:54:49
  TRACK 49 AUDIO
    TITLE "2Q_t_0535-0552_49"
    INDEX 01 00:55:39
  TRACK 50 AUDIO
    TITLE "2Q_t_0535-0552_50"
    INDEX 01 00:56:09
  TRACK 51 AUDIO
    TITLE "2Q_t_0535-0552_51"
    INDEX 01 00:57:32
  TRACK 52 AUDIO
    TITLE "2Q_t_0535-0552_52"
    INDEX 01 00:58:06
  TRACK 53 AUDIO
    TITLE "2Q_t_0535-0552_53"
    INDEX 01 00:59:27
  TRACK 54 AUDIO
    TITLE "2Q_t_0535-0552_54"
    INDEX 01 00:59:72
  TRACK 55 AUDIO
    TITLE "2Q_t_0535-0552_55"
    INDEX 01 01:01:30
  TRACK 56 AUDIO
    TITLE "2Q_t_0535-0552_56"
    INDEX 01 01:02:02
  TRACK 57 AUDIO
    TITLE "2Q_t_0535-0552_57"
    INDEX 01 01:03:30
  TRACK 58 AUDIO
    TITLE "2Q_t_0535-0552_58"
    INDEX 01 01:04:01
  TRACK 59 AUDIO
    TITLE "2Q_t_0535-0552_59"
    INDEX 01 01:05:14
  TRACK 60 AUDIO
    TITLE "2Q_t_0535-0552_60"
    INDEX 01 01:05:61
  TRACK 61 AUDIO
    TITLE "2Q_t_0535-0552_61"
    INDEX 01 01:08:26
  TRACK 62 AUDIO
    TITLE "2Q_t_0535-0552_62"
    INDEX 01 01:08:69
  TRACK 63 AUDIO
    TITLE "2Q_t_0535-0552_63"
    INDEX 01 01:10:17
  TRACK 64 AUDIO
    TITLE "2Q_t_0535-0552_64"
    INDEX 01 01:10:64
  TRACK 65 AUDIO
    TITLE "2Q_t_0535-0552_65"
    INDEX 01 01:13:15
  TRACK 66 AUDIO
    TITLE "2Q_t_0535-0552_66"
    INDEX 01 01:13:58
  TRACK 67 AUDIO
    TITLE "2Q_t_0535-0552_67"
    INDEX 01 01:14:69
  TRACK 68 AUDIO
    TITLE "2Q_t_0535-0552_68"
    INDEX 01 01:15:49
  TRACK 69 AUDIO
    TITLE "2Q_t_0535-0552_69"
    INDEX 01 01:18:67
  TRACK 70 AUDIO
    TITLE "2Q_t_0535-0552_70"
    INDEX 01 01:19:39
  TRACK 71 AUDIO
    TITLE "2Q_t_0535-0552_71"
    INDEX 01 01:20:70
  TRACK 72 AUDIO
    TITLE "2Q_t_0535-0552_72"
    INDEX 01 01:21:50
  TRACK 73 AUDIO
    TITLE "2Q_t_0535-0552_73"
    INDEX 01 01:22:65
